<svg width="27" height="24" viewBox="0 0 27 24" fill="none" xmlns="http://www.w3.org/2000/svg">
<g clip-path="url(#clip0_183_303)">
<path d="M9.403 0.789433C6.70528 1.62131 4.37877 3.20024 2.7652 5.29431C1.15163 7.38838 0.336043 9.8872 0.438244 12.4237C0.540445 14.9603 1.55504 17.4008 3.33301 19.3869C5.11098 21.373 7.5586 22.8 10.3164 23.4582C12.5521 23.971 14.8946 23.9935 17.1423 23.5238C19.1785 23.1173 21.0611 22.2476 22.6056 21.0001C24.2131 19.662 25.3799 17.9597 25.9806 16.0763C26.6335 14.0282 26.7496 11.8743 26.3202 9.78006H13.7652V14.4094H21.0362C20.8909 15.1478 20.5795 15.8525 20.1206 16.4814C19.6618 17.1102 19.0649 17.6504 18.3657 18.0694C17.4779 18.5915 16.477 18.9428 15.4274 19.1007C14.3747 19.2747 13.2949 19.2747 12.2422 19.1007C11.1753 18.9046 10.166 18.5132 9.27854 17.9513C7.85292 17.0543 6.78247 15.7799 6.21995 14.3101C5.64792 12.8127 5.64792 11.1893 6.21995 9.69193C6.62037 8.64234 7.2823 7.68669 8.15636 6.89631C9.1566 5.97521 10.4229 5.3168 11.8165 4.99333C13.21 4.66985 14.6768 4.6938 16.056 5.06256C17.1334 5.35654 18.1186 5.87019 18.9332 6.56256C19.753 5.83756 20.5714 5.11068 21.3885 4.38193C21.8103 3.99006 22.2702 3.61693 22.6857 3.21568C21.4424 2.1872 19.983 1.38691 18.391 0.860683C15.4921 -0.0749616 12.3202 -0.100106 9.403 0.789433Z" fill="white"/>
<path d="M9.40945 0.789367C12.3264 -0.100776 15.4984 -0.0762934 18.3975 0.858742C19.9897 1.38855 21.4485 2.19269 22.6901 3.22499C22.2682 3.62624 21.8231 4.00124 21.3928 4.39124C20.5744 5.11749 19.7566 5.84124 18.9396 6.56249C18.1251 5.87012 17.1398 5.35648 16.0624 5.06249C14.6837 4.69244 13.2169 4.66711 11.823 4.98926C10.4292 5.31141 9.16205 5.96861 8.1607 6.88874C7.28665 7.67912 6.62471 8.63477 6.2243 9.68437L1.85156 6.67499C3.41674 3.91604 6.12674 1.80566 9.40945 0.789367Z" fill="#E33629"/>
<path d="M0.691244 9.6563C0.926273 8.62091 1.31647 7.61822 1.8514 6.67505L6.22413 9.69192C5.6521 11.1893 5.6521 12.8127 6.22413 14.31C4.76726 15.31 3.30968 16.315 1.8514 17.325C0.512265 14.9556 0.103852 12.256 0.691244 9.6563Z" fill="#F8BD00"/>
<path d="M13.7666 9.77808H26.3216C26.751 11.8723 26.6348 14.0262 25.982 16.0743C25.3813 17.9577 24.2145 19.66 22.607 20.9981C21.1958 20.0193 19.7783 19.0481 18.3671 18.0693C19.0667 17.6498 19.6639 17.1091 20.1228 16.4796C20.5816 15.85 20.8928 15.1446 21.0376 14.4056H13.7666C13.7645 12.8643 13.7666 11.3212 13.7666 9.77808Z" fill="#587DBD"/>
<path d="M1.84375 17.3251C3.30203 16.3251 4.75961 15.3201 6.21648 14.3101C6.78013 15.7804 7.8521 17.0549 9.2793 17.9513C10.1695 18.5106 11.181 18.8988 12.2493 19.0913C13.302 19.2653 14.3818 19.2653 15.4345 19.0913C16.4841 18.9334 17.4849 18.5821 18.3728 18.0601C19.784 19.0388 21.2015 20.0101 22.6127 20.9888C21.0684 22.237 19.1858 23.1073 17.1494 23.5144C14.9016 23.9841 12.5592 23.9616 10.3234 23.4488C8.55515 23.0291 6.90346 22.2893 5.47188 21.2757C3.95663 20.2063 2.71905 18.8588 1.84375 17.3251Z" fill="#319F43"/>
</g>
<defs>
<clipPath id="clip0_183_303">
<rect width="27" height="24" fill="white"/>
</clipPath>
</defs>
</svg>
